<?xml version="1.0" encoding="utf-8"?>
<!-- Generator: Adobe Illustrator 24.0.2, SVG Export Plug-In . SVG Version: 6.00 Build 0)  -->
<svg version="1.1" id="Capa_1" xmlns="http://www.w3.org/2000/svg" xmlns:xlink="http://www.w3.org/1999/xlink" x="0px" y="0px"
	 viewBox="0 0 505.4 505.4" style="enable-background:new 0 0 505.4 505.4;" xml:space="preserve">
<path d="M439.7,232.9c13.6-11.3,21.6-28.1,21.6-45.8c0-32.8-26.7-59.4-59.4-59.4c-32.8,0-59.4,26.7-59.4,59.4
	c0,17.8,8,34.6,21.6,45.8c-10.5,4.2-20.1,9.9-28.5,17.2c-12.1-10-25.7-17.6-40.4-22.6c19.6-13.9,31.6-36.8,31.6-61
	c0-41.1-33.5-74.6-74.6-74.6c-41.1,0-74.6,33.5-74.6,74.6c0,24.2,12,47.1,31.6,61c-14.5,5-27.9,12.5-39.9,22.4
	c-8.5-7.1-17.9-12.8-28.1-16.8c13.6-11.3,21.6-28.1,21.6-45.8c0-32.8-26.7-59.4-59.4-59.4c-32.8,0-59.4,26.7-59.4,59.4
	c0,17.8,8,34.6,21.6,45.8c-38.9,15.4-64.6,53.1-64.6,95.2v6.5c0,1.6,1.3,2.9,2.9,2.9h117.8c-0.5,4.8-0.8,9.6-0.8,14.2v6.7
	c0,30.3,24.7,55,55,55h152.9c30.3,0,55-24.7,55-55v-6.7c0-4.6-0.3-9.4-0.8-14.2h118.6c1.6,0,2.9-1.3,2.9-2.9v-6.5
	C504.3,286,478.5,248.3,439.7,232.9z M402.8,225.7l-1.5,0c-20.9-0.4-37.9-17.7-37.9-38.6c0-21.3,17.3-38.6,38.6-38.6
	s38.6,17.3,38.6,38.6C440.6,207.9,423.6,225.2,402.8,225.7z M401.4,246.5h1.2c40.6,0.3,74.7,30.3,80.3,70.3H378.9
	c-5.3-19.2-15-37.1-28.2-52.1C365,253.1,382.9,246.6,401.4,246.5z M255.2,220.3h-6.4c-28.4-1.7-50.6-25.2-50.6-53.7
	c0-29.7,24.1-53.8,53.8-53.8c29.7,0,53.8,24.1,53.8,53.8C305.8,195,283.6,218.6,255.2,220.3z M248.7,241.1c1.2,0.1,2.4,0.1,3.4,0.1
	s2.3,0,3.4-0.1c59.1,1.8,107.2,51.4,107.2,110.7v6.7c0,18.9-15.3,34.2-34.2,34.2H175.7c-18.9,0-34.2-15.3-34.2-34.2v-6.7
	C141.5,292.6,189.5,242.9,248.7,241.1z M102.4,246.5h1.2c18.2,0.1,35.9,6.4,50.2,17.8c-13.4,15.1-23.2,33.1-28.5,52.5H22.2
	C27.8,276.8,61.8,246.7,102.4,246.5z M103.8,225.7l-1.5,0C81.4,225.3,64.4,208,64.4,187c0-21.3,17.3-38.6,38.6-38.6
	s38.6,17.3,38.6,38.6C141.7,207.9,124.7,225.2,103.8,225.7z"/>
</svg>
