<svg id="Layer_5" enable-background="new 0 0 64 64" height="512" viewBox="0 0 64 64" width="512" xmlns="http://www.w3.org/2000/svg"><g><path d="m23 53h-6c-1.103 0-2 .897-2 2 0 2.206 1.794 4 4 4h2c2.206 0 4-1.794 4-4 0-1.103-.897-2-2-2zm-2 4h-2c-1.103 0-2-.897-2-2h6c0 1.103-.897 2-2 2z"/><path d="m33 53h-2c-1.103 0-2 .897-2 2v1c0 1.654 1.346 3 3 3s3-1.346 3-3v-1c0-1.103-.897-2-2-2zm0 3c0 .552-.448 1-1 1s-1-.448-1-1v-1h2z"/><path d="m9 53h-2c-1.103 0-2 .897-2 2v1c0 1.654 1.346 3 3 3s3-1.346 3-3v-1c0-1.103-.897-2-2-2zm0 3c0 .552-.448 1-1 1s-1-.448-1-1v-1h2z"/><path d="m15 5h10v2h-10z"/><path d="m63 25.299-1.321-.479.596-1.273-3.82-3.82-1.273.596-.481-1.323h-5.402l-.479 1.321-1.273-.596-3.82 3.82.596 1.273-1.323.481v5.402l1.321.479-.596 1.273 3.82 3.82 1.273-.596.481 1.323h5.402l.479-1.321 1.273.596 3.82-3.82-.596-1.273 1.323-.481zm-2 4-.823.3-.442.202-.427 1.031.561 1.198-1.838 1.838-1.198-.561-1.08.446-.454 1.247h-2.598l-.3-.823-.202-.442-1.031-.427-1.198.561-1.838-1.838.561-1.198-.446-1.08-1.247-.454v-2.598l.823-.3.442-.202.427-1.031-.561-1.198 1.838-1.838 1.198.561 1.08-.446.454-1.247h2.598l.3.823.202.442 1.031.427 1.198-.561 1.838 1.838-.561 1.198.446 1.08 1.247.454z"/><path d="m54 23c-2.757 0-5 2.243-5 5s2.243 5 5 5 5-2.243 5-5-2.243-5-5-5zm0 8c-1.654 0-3-1.346-3-3s1.346-3 3-3 3 1.346 3 3-1.346 3-3 3z"/><path d="m39 20.239v-14.239c0-2.757-2.243-5-5-5h-28c-2.757 0-5 2.243-5 5v52c0 2.757 2.243 5 5 5h28c2.757 0 5-2.243 5-5v-22.239c1.433-.339 2.716-1.037 3.716-2.063l.284-.291v-3.407h-3c-1.103 0-2-.897-2-2s.897-2 2-2h3v-3.407l-.284-.291c-1-1.026-2.283-1.724-3.716-2.063zm-2 37.761c0 1.654-1.346 3-3 3h-28c-1.654 0-3-1.346-3-3v-52c0-1.654 1.346-3 3-3h28c1.654 0 3 1.346 3 3v14c-.683 0-1.354.094-2 .263v-13.263c0-1.103-.897-2-2-2h-5.781l-.81 3.242c-.112.446-.511.758-.971.758h-10.876c-.46 0-.858-.312-.971-.757l-.81-3.243h-5.781c-1.103 0-2 .897-2 2v42c0 1.103.897 2 2 2h26c1.103 0 2-.897 2-2v-13.263c.646.169 1.317.263 2 .263zm-19.755-34h-2.482l1.923-5h1.987zm-1.932-7-5.77 15h6.146l-3 11h4.882l6.471-11h6.037c.709 1.223 1.725 2.222 2.92 2.916v14.084h-25.999v-42h4.219l.433 1.729c.333 1.336 1.531 2.271 2.91 2.271h10.877c1.379 0 2.576-.935 2.91-2.272l.432-1.728h4.219v14.084c-1.195.694-2.211 1.693-2.92 2.916h-10.754l2-7zm2.451 15h3.958l-5.294 9h-1.118zm23.236-8h-1c-2.206 0-4 1.794-4 4s1.794 4 4 4h1v.572c-1.046.924-2.45 1.428-4 1.428-2.298 0-4.424-1.346-5.414-3.43l-.272-.57h-13.004-1.31-4.544l1.538-4h17.32l.271-.57c.991-2.084 3.117-3.43 5.415-3.43 1.55 0 2.954.504 4 1.428z"/></g></svg>